/* XPM */
static const char *ExposeImageIcon_XPM[]={
"64 64 225 2",
".q c #000000",
".x c #010101",
".I c #020202",
"#. c #030303",
"bv c #040404",
".p c #050505",
".Q c #070707",
"b# c #080808",
"#w c #090909",
".r c #0b0b0b",
"#W c #0c0c0c",
"bp c #0d0d0d",
".M c #0e0e0e",
"bg c #0f0f0f",
"b. c #101010",
"#n c #111111",
"bl c #121212",
"aN c #131313",
"ar c #141414",
"#a c #151515",
"#J c #161616",
".9 c #171717",
"ab c #181818",
"bf c #191919",
"bA c #1a1a1a",
"#F c #1b1b1b",
"#y c #1c1c1c",
"#j c #1d1d1d",
".N c #1e1e1e",
"aW c #1f1f1f",
"#h c #202020",
"aE c #212121",
".D c #222222",
"#1 c #232323",
"a. c #242424",
"aY c #252525",
"#e c #262626",
"bb c #282828",
"#0 c #292929",
"aL c #2a2a2a",
"bC c #2b2b2b",
"aj c #2c2c2c",
"a6 c #2d2d2d",
".o c #2e2e2e",
".2 c #2f2f2f",
"aX c #303030",
"bd c #313131",
".E c #323232",
"#f c #333333",
"#A c #343434",
"#q c #363636",
"br c #373737",
".s c #383838",
"#8 c #393939",
".H c #3a3a3a",
"#k c #3b3b3b",
"ad c #3c3c3c",
".y c #3d3d3d",
"#o c #3e3e3e",
"#7 c #3f3f3f",
".e c #404040",
"#M c #414141",
"ay c #424242",
".f c #434343",
"aA c #444444",
"#U c #454545",
".U c #474747",
"aU c #484848",
"be c #4a4a4a",
".g c #4b4b4b",
".d c #4c4c4c",
"az c #4d4d4d",
"a1 c #4e4e4e",
"at c #4f4f4f",
".J c #505050",
"aS c #515151",
"ah c #525252",
"aV c #535353",
"aH c #545454",
"#P c #555555",
".W c #565656",
"aK c #575757",
"a# c #585858",
"ag c #595959",
".c c #5a5a5a",
"#5 c #5b5b5b",
".8 c #5c5c5c",
"aZ c #5d5d5d",
".h c #5f5f5f",
"a4 c #606060",
"#t c #616161",
"#R c #626262",
"aC c #636363",
".n c #646464",
"bx c #656565",
".V c #666666",
"bh c #676767",
"ae c #686868",
".S c #6b6b6b",
"#3 c #6c6c6c",
".t c #6e6e6e",
"aQ c #6f6f6f",
"#H c #707070",
"#g c #727272",
"aR c #737373",
"#B c #747474",
".4 c #757575",
".b c #767676",
"#X c #777777",
".3 c #787878",
"#s c #797979",
"aJ c #7a7a7a",
"bD c #7b7b7b",
".i c #7c7c7c",
"ac c #7d7d7d",
"af c #7e7e7e",
"aw c #7f7f7f",
"av c #808080",
".X c #818181",
"ax c #838383",
".w c #848484",
"bm c #858585",
".C c #868686",
".L c #878787",
"#u c #898989",
"ak c #8b8b8b",
"ai c #8c8c8c",
"aT c #8d8d8d",
"an c #8f8f8f",
"a2 c #909090",
"aM c #919191",
"aI c #929292",
"#E c #939393",
"#p c #949494",
".a c #959595",
"a7 c #969696",
".z c #979797",
"#G c #999999",
".j c #9a9a9a",
".7 c #9b9b9b",
"bw c #9c9c9c",
"#4 c #9d9d9d",
"#d c #9e9e9e",
"#O c #9f9f9f",
"#C c #a0a0a0",
"au c #a1a1a1",
".F c #a3a3a3",
"#2 c #a4a4a4",
"ao c #a5a5a5",
".O c #a6a6a6",
"a5 c #a7a7a7",
".Y c #a8a8a8",
"#D c #a9a9a9",
"#K c #aaaaaa",
"#m c #ababab",
"aG c #acacac",
"a8 c #adadad",
"a0 c #b1b1b1",
".m c #b2b2b2",
"#Y c #b3b3b3",
".Z c #b4b4b4",
"aB c #b5b5b5",
".6 c #b6b6b6",
"bj c #b7b7b7",
"#i c #b8b8b8",
"#N c #b9b9b9",
"#v c #bababa",
"aO c #bbbbbb",
"ap c #bcbcbc",
".G c #bfbfbf",
"#6 c #c2c2c2",
"aD c #c3c3c3",
"bc c #c4c4c4",
"#b c #c5c5c5",
"bn c #c6c6c6",
".u c #c7c7c7",
"#x c #c8c8c8",
"al c #c9c9c9",
"bi c #cacaca",
"#V c #cbcbcb",
"ba c #cccccc",
"aP c #cdcdcd",
".5 c #cecece",
"a3 c #cfcfcf",
"aF c #d0d0d0",
"bo c #d1d1d1",
"by c #d2d2d2",
".# c #d3d3d3",
"aa c #d4d4d4",
"as c #d5d5d5",
"#l c #d6d6d6",
"#S c #d7d7d7",
"#L c #d8d8d8",
".K c #d9d9d9",
".0 c #dadada",
"bq c #dbdbdb",
"#T c #dcdcdc",
"#Q c #dddddd",
"aq c #dedede",
"am c #dfdfdf",
"#9 c #e0e0e0",
"#r c #e1e1e1",
"## c #e2e2e2",
"#Z c #e3e3e3",
".k c #e4e4e4",
"#z c #e5e5e5",
"#c c #e6e6e6",
"bu c #e7e7e7",
"bk c #e8e8e8",
"bz c #eaeaea",
"a9 c #ededed",
".R c #efefef",
"bB c #f0f0f0",
"bt c #f2f2f2",
".v c #f3f3f3",
"#I c #f5f5f5",
".1 c #f6f6f6",
"bE c #f7f7f7",
".P c #f8f8f8",
"bs c #f9f9f9",
".B c #fbfbfb",
".A c #fcfcfc",
".T c #fdfdfd",
".l c #fefefe",
"Qt c #ffffff",
"QtQtQtQtQtQtQtQtQtQtQtQtQtQtQtQtQtQtQtQtQtQtQtQtQtQtQtQtQtQtQtQtQtQtQtQtQtQtQtQtQtQtQtQtQtQtQtQtQtQtQtQtQtQtQtQtQtQtQtQtQtQtQtQt",
"QtQtQtQtQtQtQtQtQtQtQtQtQtQtQtQtQtQtQtQtQtQtQtQtQtQtQtQtQtQtQtQtQtQtQtQtQtQtQtQtQtQtQtQtQtQtQtQtQtQtQtQtQtQtQtQtQtQtQtQtQtQtQtQt",
"QtQtQtQtQtQtQtQtQtQtQtQtQtQtQtQtQtQtQtQtQtQtQtQtQtQtQtQtQtQtQtQtQtQtQtQtQtQtQtQtQtQtQtQtQtQtQtQtQtQtQtQtQtQtQtQtQtQtQtQtQtQtQtQt",
"QtQtQtQtQtQtQtQtQtQtQtQtQtQtQtQtQtQtQtQtQtQtQtQtQtQtQtQtQtQtQtQtQtQtQtQtQtQtQtQtQtQtQtQtQtQtQtQtQtQtQtQtQtQtQtQtQtQtQtQtQtQtQtQt",
"QtQtQtQtQtQtQtQtQtQtQtQtQtQtQtQtQtQtQtQtQtQtQtQtQtQtQtQtQtQtQtQtQtQtQtQtQtQtQtQtQtQtQtQtQtQtQtQtQtQtQtQtQtQtQtQtQtQtQtQtQtQtQtQt",
"QtQtQtQtQtQtQtQtQtQtQtQtQtQtQtQtQtQtQtQtQtQtQtQtQtQt.#.a.b.c.d.e.e.f.g.h.i.j.kQtQtQtQtQtQtQtQtQtQtQtQtQtQtQtQtQtQtQtQtQtQtQtQtQt",
"QtQtQtQtQtQtQtQtQtQtQtQtQtQtQtQtQtQtQtQtQtQt.l.m.n.o.p.q.q.q.q.q.q.q.q.q.q.q.r.s.t.uQtQtQtQtQtQtQtQtQtQtQtQtQtQtQtQtQtQtQtQtQtQt",
"QtQtQtQtQtQtQtQtQtQtQtQtQtQtQtQtQtQtQtQt.v.w.o.x.q.q.q.q.q.q.q.q.q.q.q.q.q.q.q.q.q.p.y.z.AQtQtQtQtQtQtQtQtQtQtQtQtQtQtQtQtQtQtQt",
"QtQtQtQtQtQtQtQtQtQtQtQtQtQtQtQtQtQt.B.C.D.q.q.q.q.q.q.q.q.q.q.q.q.q.q.q.q.q.q.q.q.q.q.q.E.FQtQtQtQtQtQtQtQtQtQtQtQtQtQtQtQtQtQt",
"QtQtQtQtQtQtQtQtQtQtQtQtQtQtQtQtQt.G.H.q.q.q.q.q.q.q.q.q.q.q.q.q.q.q.q.q.q.q.q.q.q.q.q.q.q.I.J.KQtQtQtQtQtQtQtQtQtQtQtQtQtQtQtQt",
"QtQtQtQtQtQtQtQtQtQtQtQtQtQtQt.l.L.M.q.q.q.q.q.q.q.q.q.q.q.q.q.q.q.q.q.q.q.q.q.q.q.q.q.q.q.q.q.N.OQtQtQtQtQtQtQtQtQtQtQtQtQtQtQt",
"QtQtQtQtQtQtQtQtQtQtQtQtQtQt.P.c.x.q.q.q.q.q.q.q.q.q.q.q.q.q.q.q.q.q.q.q.q.q.q.q.q.q.q.q.q.q.q.q.Q.iQtQtQtQtQtQtQtQtQtQtQtQtQtQt",
"QtQtQtQtQtQtQtQtQtQtQtQtQt.R.g.q.q.q.q.q.q.q.q.q.q.q.q.q.q.q.q.q.q.q.q.q.q.q.q.q.q.q.q.q.q.q.q.q.q.x.S.TQtQtQtQtQtQtQtQtQtQtQtQt",
"QtQtQtQtQtQtQtQtQtQtQtQt.P.U.q.q.q.q.q.q.q.q.q.q.q.q.q.q.q.q.q.q.q.q.q.q.q.q.q.q.q.q.q.q.q.q.q.q.q.q.q.VQtQtQtQtQtQtQtQtQtQtQtQt",
"QtQtQtQtQtQtQtQtQtQtQt.T.W.q.q.q.q.q.q.q.q.q.q.q.q.q.q.q.q.q.q.q.q.q.q.q.q.q.q.q.q.q.q.q.q.q.q.q.q.q.q.x.XQtQtQtQtQtQtQtQtQtQtQt",
"QtQtQtQtQtQtQtQtQtQtQt.i.q.q.q.q.q.q.q.q.q.q.q.q.q.q.q.q.q.q.q.q.q.q.q.q.q.q.q.q.q.q.q.q.q.q.q.q.q.q.q.q.Q.YQtQtQtQtQtQtQtQtQtQt",
"QtQtQtQtQtQtQtQtQtQt.Z.r.q.q.q.q.q.q.q.q.q.q.q.q.q.q.q.q.q.q.q.q.q.q.q.q.q.q.q.q.q.q.q.q.q.q.q.q.q.q.q.q.q.N.0QtQtQtQtQtQtQtQtQt",
"QtQtQtQtQtQtQtQtQt.1.2.q.q.q.q.q.q.q.q.q.q.q.q.q.q.q.q.q.q.q.q.q.q.q.q.q.q.q.q.q.q.q.q.q.q.q.q.q.q.q.q.q.q.q.JQtQtQtQtQtQtQtQtQt",
"QtQtQtQtQtQtQtQtQt.3.q.q.q.q.q.q.q.q.q.q.q.q.q.q.q.q.x.o.4.Y.G.#.5.6.7.8.9.q.q.q.q.q.q.q.q.q.q.q.q.q.q.q.q.q#..FQtQtQtQtQtQtQtQt",
"QtQtQtQtQtQtQtQt###a.q.q.q.q.q.q.q.q.q.q.q.q.q.q.x.J#b#c#c#c#c#c#c#c#c#c.k#d#e.q.q.q.q.q.q.q.q.q.q.q.q.q.q.q.q#f.TQtQtQtQtQtQtQt",
"QtQtQtQtQtQtQtQt#g.q.q.q.q.q.q.q.q.q.q.q.q.q.q#h#i#c#c#c#c#c#c#c#c#c#c#c#c#c##.X.p.q.q.q.q.q.q.q.q.q.q.q.q.q.q.q.jQtQtQtQtQtQtQt",
"QtQtQtQtQtQtQt.v#j.q.q.q.q.q.q.q.q.q.q.q.q.q#k#l#c#c#c#c#c#c#c#c#c#c#c#c#c#c#c#c#m#n.q.q.q.q.q.q.q.q.q.q.q.q.q.q#oQtQtQtQtQtQtQt",
"QtQtQtQtQtQtQt#p.q.q.q.q.q.q.q.q.q.q.q.q.q#q#r#c#c#c#c.k#m#s.8.8#t#u.G#c#c#c#c#c#c#v#w.q.q.q.q.q.q.q.q.q.q.q.q.q.p#xQtQtQtQtQtQt",
"QtQtQtQtQtQtQt.d.q.q.q.q.q.q.q.q.q.q.q.q#y.##c#c#c#z#u#j#A#B#C#D#E.V#F#f#D#c#c#c#c#c#G.x.q.q.q.q.q.q.q.q.q.q.q.q.q#HQtQtQtQtQtQt",
"QtQtQtQtQtQt#I#J.q.q.q.q.q.q.q.q.q.q.q.q#K#c#c#c#L#M#f#N#c#c#c#c#c#c.k#O.N.c#r#c#c#c#c#P.q.q.q.q.q.q.q.q.q.q.q.q.q.HQtQtQtQtQtQt",
"QtQtQtQtQtQt.Y.q.q.q.q.q.q.q.q.q.q.q.q.e#c#c#c#Q#f#R###c#c#c###S.k#c#c#c#T.U#U#r#c#c#c#V.Q.q.q.q.q.q.q.q.q.q.q.q.q#W#cQtQtQtQtQt",
"QtQtQtQtQtQt#X.q.q.q.q.q.q.q.q.q.q.q.q#Y#c#c#c.n.W#z#c#Z.C#0#n#1.M#o#2#c#c###U#3#c#c#c#c.h.q.q.q.q.q.q.q.q.q.q.q.q.q#4QtQtQtQtQt",
"QtQtQtQtQtQt#5.q.q.q.q.q.q.q.q.q.q.q.9#z#c#c#6#y.0#c#Q#7#8#Y#z#c#9.7a.a####caaab#i#c#c#c#D.q.q.q.q.q.q.q.q.q.q.q.q.qacQtQtQtQtQt",
"QtQtQtQtQtQtad.q.q.q.q.q.q.q.q.q.q.q.h#c#c#caeaf#c#cagah#Z#c#c#c#c#c#Q#M.n#c#caiah#c#c#c#r.M.q.q.q.q.q.q.q.q.q.q.q.q.hQtQtQtQtQt",
"QtQtQtQtQtQtaj.q.q.q.q.q.q.q.q.q.q.qak#c#c#c#jal#c#x#Fam#c##an#gao#c#c#L#yap#caqaras#c#c#c#q.q.q.q.q.q.q.q.q.q.q.q.qatQtQtQtQtQt",
"QtQtQtQtQtQt.D.q.q.q.q.q.q.q.q.q.q.qau#c#c#L.M#c#cav.V#c#cat#7aw#0#R#c#cax#5#c#cay#2#c#c#caz.q.q.q.q.q.q.q.q.q.q.q.qaAQtQtQtQtQt",
"QtQtQtQtQtQtab.q.q.q.q.q.q.q.q.q.q.qaB#c#c#V#F#c#caCax#c#9.Q###r#Q#haD#c#baE#c#c.t.3#c#c#c#R.q.q.q.q.q.q.q.q.q.q.q.q#8QtQtQtQtQt",
"QtQtQtQtQtQt.D.q.q.q.q.q.q.q.q.q.q.q#D#c#caF#J#c#c.3.t#c#c.H#0aG#caHaI#c#L.M#c#caJ#3#c#c#caK.q.q.q.q.q.q.q.q.q.q.q.qaAQtQtQtQtQt",
"QtQtQtQtQtQtaL.q.q.q.q.q.q.q.q.q.q.qaM#c#c#caN.##caO#e#Z#c#TaP#c#cad.Y#caF#J#c#c#XaQ#c#c#c.y.q.q.q.q.q.q.q.q.q.q.q.qazQtQtQtQtQt",
"QtQtQtQtQtQt#8.q.q.q.q.q.q.q.q.q.q.qaR#c#c#caSaT#c#caU.h.k#c#c#c#2.Nam#c.O.e#c#caV#E#c#c#caW.q.q.q.q.q.q.q.q.q.q.q.q.cQtQtQtQtQt",
"QtQtQtQtQtQt#P.q.q.q.q.q.q.q.q.q.q.qaX#c#c#c#YaYam#c#Ladaj.3.zaZ#aa0#c#ca1a2#c#ca.#6#c#c#6.q.q.q.q.q.q.q.q.q.q.q.q.q#sQtQtQtQtQt",
"QtQtQtQtQtQtaR.q.q.q.q.q.q.q.q.q.q.q.xa3#c#c#ca1#t#c#c#z#D#ga4av.##c#ca5.Dam#c#Na6#c#c#caJ.q.q.q.q.q.q.q.q.q.q.q.q.qa7QtQtQtQtQt",
"QtQtQtQtQtQt#4.q.q.q.q.q.q.q.q.q.q.q.q.S#c#c#c#L#0.V###c#c#c#c#c#c#ca8.9#Y#c#catak#c#c#9#j.q.q.q.q.q.q.q.q.q.q.q.q.Q#LQtQtQtQtQt",
"QtQtQtQtQtQta9b..q.q.q.q.q.q.q.q.q.q.qb#ba#c#c#c#S.fbb#G#9#c#c#cbc.h.9#m#c#c#2#0#r#c#cav.q.q.q.q.q.q.q.q.q.q.q.q.qbdQtQtQtQtQtQt",
"QtQtQtQtQtQtQt.f.q.q.q.q.q.q.q.q.q.q.q.qbe#z#c#c#c#cau.f.M.oadbfaW#Has#c#capaN.Z#c#c#xbg.q.q.q.q.q.q.q.q.q.q.q.q.qbhQtQtQtQtQtQt",
"QtQtQtQtQtQtQt.L.q.q.q.q.q.q.q.q.q.q.q.q.qaR#c#c#c#c#c#c#Zbi.uaa#c#c#c#c#c.U#O#c#c#T#0.q.q.q.q.q.q.q.q.q.q.q.q.q.IbjQtQtQtQtQtQt",
"QtQtQtQtQtQtQtbkbl.q.q.q.q.q.q.q.q.q.q.q.q.xbm#c#c#c#c#c#c#c#c#c#c#c#c#c#c.k#c#c.K#7.q.q.q.q.q.q.q.q.q.q.q.q.q.qbd.lQtQtQtQtQtQt",
"QtQtQtQtQtQtQtQt#R.q.q.q.q.q.q.q.q.q.q.q.q.q.qaZ#r#c#c#c#c#c#c#c#c#c#c#c#c#c#cbnaY.q.q.q.q.q.q.q.q.q.q.q.q.q.q.q.LQtQtQtQtQtQtQt",
"QtQtQtQtQtQtQtQtbobp.q.q.q.q.q.q.q.q.q.q.q.q.q.q#e#4#c#c#c#c#c#c#c#c#c#c#cbqaQ.r.q.q.q.q.q.q.q.q.q.q.q.q.q.q.q#e#IQtQtQtQtQtQtQt",
"QtQtQtQtQtQtQtQtQt.V.q.q.q.q.q.q.q.q.q.q.q.q.q.q.q.qbdac#b#c#c#c#c#c###KaCaN.q.q.q.q.q.q.q.q.q.q.q.q.q.q.q.q.qaTQtQtQtQtQtQtQtQt",
"QtQtQtQtQtQtQtQtQt#caE.q.q.q.q.q.q.q.q.q.q.q.q.q.q.q.q.q.qblbb.ebr#hb#.q.q.q.q.q.q.q.q.q.q.q.q.q.q.q.q.q.q.q#7.TQtQtQtQtQtQtQtQt",
"QtQtQtQtQtQtQtQtQtQt.7#..q.q.q.q.q.q.q.q.q.q.q.q.q.q.q.q.q.q.q.q.q.q.q.q.q.q.q.q.q.q.q.q.q.q.q.q.q.q.q.q.q#n#bQtQtQtQtQtQtQtQtQt",
"QtQtQtQtQtQtQtQtQtQtQt.n.q.q.q.q.q.q.q.q.q.q.q.q.q.q.q.q.q.q.q.q.q.q.q.q.q.q.q.q.q.q.q.q.q.q.q.q.q.q.q.q.xaTQtQtQtQtQtQtQtQtQtQt",
"QtQtQtQtQtQtQtQtQtQtQt.v#o.q.q.q.q.q.q.q.q.q.q.q.q.q.q.q.q.q.q.q.q.q.q.q.q.q.q.q.q.q.q.q.q.q.q.q.q.q.q.q.8QtQtQtQtQtQtQtQtQtQtQt",
"QtQtQtQtQtQtQtQtQtQtQtQt.k#f.q.q.q.q.q.q.q.q.q.q.q.q.q.q.q.q.q.q.q.q.q.q.q.q.q.q.q.q.q.q.q.q.q.q.q.q.qahbsQtQtQtQtQtQtQtQtQtQtQt",
"QtQtQtQtQtQtQtQtQtQtQtQtQt#T#f.q.q.q.q.q.q.q.q.q.q.q.q.q.q.q.q.q.q.q.q.q.q.q.q.q.q.q.q.q.q.q.q.q.q.q.gbtQtQtQtQtQtQtQtQtQtQtQtQt",
"QtQtQtQtQtQtQtQtQtQtQtQtQtQtbu#7.q.q.q.q.q.q.q.q.q.q.q.q.q.q.q.q.q.q.q.q.q.q.q.q.q.q.q.q.q.q.q.q.q.8.PQtQtQtQtQtQtQtQtQtQtQtQtQt",
"QtQtQtQtQtQtQtQtQtQtQtQtQtQtQt#Ibhbv.q.q.q.q.q.q.q.q.q.q.q.q.q.q.q.q.q.q.q.q.q.q.q.q.q.q.q.q.qbp.X.lQtQtQtQtQtQtQtQtQtQtQtQtQtQt",
"QtQtQtQtQtQtQtQtQtQtQtQtQtQtQtQtQtbwaE.q.q.q.q.q.q.q.q.q.q.q.q.q.q.q.q.q.q.q.q.q.q.q.q.q.q.q#f#vQtQtQtQtQtQtQtQtQtQtQtQtQtQtQtQt",
"QtQtQtQtQtQtQtQtQtQtQtQtQtQtQtQtQtQtbkbxbp.q.q.q.q.q.q.q.q.q.q.q.q.q.q.q.q.q.q.q.q.q.q.qbfacbsQtQtQtQtQtQtQtQtQtQtQtQtQtQtQtQtQt",
"QtQtQtQtQtQtQtQtQtQtQtQtQtQtQtQtQtQtQtQtby.nar.q.q.q.q.q.q.q.q.q.q.q.q.q.q.q.q.q.q.qaW.4#cQtQtQtQtQtQtQtQtQtQtQtQtQtQtQtQtQtQtQt",
"QtQtQtQtQtQtQtQtQtQtQtQtQtQtQtQtQtQtQtQtQtQtbz.L#Ubl.q.q.q.q.q.q.q.q.q.q.q.q.qbAaSa7.1QtQtQtQtQtQtQtQtQtQtQtQtQtQtQtQtQtQtQtQtQt",
"QtQtQtQtQtQtQtQtQtQtQtQtQtQtQtQtQtQtQtQtQtQtQtQtQtbB#OaR.W.HbCaEbf#1a6#7#5bDa8bEQtQtQtQtQtQtQtQtQtQtQtQtQtQtQtQtQtQtQtQtQtQtQtQt",
"QtQtQtQtQtQtQtQtQtQtQtQtQtQtQtQtQtQtQtQtQtQtQtQtQtQtQtQtQtQtQtQtQtQtQtQtQtQtQtQtQtQtQtQtQtQtQtQtQtQtQtQtQtQtQtQtQtQtQtQtQtQtQtQt",
"QtQtQtQtQtQtQtQtQtQtQtQtQtQtQtQtQtQtQtQtQtQtQtQtQtQtQtQtQtQtQtQtQtQtQtQtQtQtQtQtQtQtQtQtQtQtQtQtQtQtQtQtQtQtQtQtQtQtQtQtQtQtQtQt",
"QtQtQtQtQtQtQtQtQtQtQtQtQtQtQtQtQtQtQtQtQtQtQtQtQtQtQtQtQtQtQtQtQtQtQtQtQtQtQtQtQtQtQtQtQtQtQtQtQtQtQtQtQtQtQtQtQtQtQtQtQtQtQtQt",
"QtQtQtQtQtQtQtQtQtQtQtQtQtQtQtQtQtQtQtQtQtQtQtQtQtQtQtQtQtQtQtQtQtQtQtQtQtQtQtQtQtQtQtQtQtQtQtQtQtQtQtQtQtQtQtQtQtQtQtQtQtQtQtQt",
"QtQtQtQtQtQtQtQtQtQtQtQtQtQtQtQtQtQtQtQtQtQtQtQtQtQtQtQtQtQtQtQtQtQtQtQtQtQtQtQtQtQtQtQtQtQtQtQtQtQtQtQtQtQtQtQtQtQtQtQtQtQtQtQt",
"QtQtQtQtQtQtQtQtQtQtQtQtQtQtQtQtQtQtQtQtQtQtQtQtQtQtQtQtQtQtQtQtQtQtQtQtQtQtQtQtQtQtQtQtQtQtQtQtQtQtQtQtQtQtQtQtQtQtQtQtQtQtQtQt"};
