/* XPM */
const static char *ImageAcquisitionSettingsIcon_XPM[]={
"64 64 54 1",
". c None",
"Z c #666666",
"# c #696969",
"b c #696969",
"c c #646464",
"e c #666666",
"a c #656565",
"d c #666666",
"n c #676767",
"o c #686868",
"t c #6a6a6a",
"L c #6d6d6d",
"I c #6e6e6e",
"H c #6f6f6f",
"f c #717171",
"K c #737373",
"U c #747474",
"m c #757575",
"M c #767676",
"u c #777777",
"J c #787878",
"V c #7a7a7a",
"R c #7c7c7c",
"x c #7d7d7d",
"W c #7f7f7f",
"Y c #808080",
"y c #828282",
"g c #848484",
"l c #858585",
"X c #868686",
"p c #878787",
"B c #8a8a8a",
"h c #8b8b8b",
"k c #8c8c8c",
"F c #909090",
"i c #929292",
"j c #939393",
"N c #959595",
"G c #999999",
"D c #9a9a9a",
"O c #9c9c9c",
"S c #9d9d9d",
"T c #a2a2a2",
"E c #a3a3a3",
"q c #a7a7a7",
"v c #a8a8a8",
"s c #a9a9a9",
"P c #aaaaaa",
"w c #acacac",
"C c #afafaf",
"Q c #b0b0b0",
"z c #b1b1b1",
"A c #b2b2b2",
"r c #b3b3b3",
"................................................................",
"................................................................",
"................................................................",
"................................................................",
"....#aaaaaaaaaaaaaaaaaaaaaaaaaaaaaaaaaaaaaaaaaaaaaaaaaaaaab.....",
"....cddddddddddddddddddddddddddddddddddddddddddddddddddddde.....",
"....cddddddddddddddddddddddddddddddddddddddddddddddddddddde.....",
"....cdddddddddddfghijjjjjjjjjjjjjjjjjjjjjjjiklmndddddddddde.....",
"....cddddddddopqrrrrrrrrrrrrrrrrrrrrrrrrrrrrrrrsktdddddddde.....",
"....cddddddduvrrrrrrrrrrrrrrrrrrrrrrrrrrrrrrrrrrrwxddddddde.....",
"....cddddddyzrrrrrrrrrrrrrrrrrrrrrrrrrrrrrrrrrrrrrABdddddde.....",
"....cdddddxArrrrrrrrrrrrrrrrrrrrrrrrrrrrrrrrrrrrrrrrlddddde.....",
"....cddddfCrrrrrrrrrrrrrrrrrrrrrrrrrrrrrrrrrrrrrrrrrAudddde.....",
"....cddddDrrrrrrrrrrrrrrrrrrrrrrrrrrrrrrrrrrrrrrrrrrrEnddde.....",
"....cdddmrrrrrrrrrrrrrrrrrrrrrrrrrrrrrrrrrrrrrrrrrrrrrxddde.....",
"....cdddFrrrrrrrrrrrrrrrrrrrrrrrrrrrrrrrrrrrrrrrrrrrrrGddde.....",
"....cdddqrrrrrrrrrrrrrrrrrrrrrrrrrrrrrrrrrrrrrrrrrrrrrCodde.....",
"....cddnArrrrrrrrrrrrrrrrrrrrrrrrrrrrrrrrrrrrrrrrrrrrrrHdde.....",
"....cddIrrrrrrrrrrrrrrrrrrrrrrrrrrrrrrrrrrrrrrrrrrrrrrrJdde.....",
"....cddKrrrrrrrrrrrrrrrrrrrrrrrrrrrrrrrrrrrrrrrrrrrrrrrxdde.....",
"....cddKrrrrrrrrrrrrrrrrrrrrrrrrrrrrrrrrrrrrrrrrrrrrrrrxdde.....",
"....cddKrrrrrrrrrrrrrrrrrrrrrrrrrrrrrrrrrrrrrrrrrrrrrrrxdde.....",
"....cddKrrrrrrrrrrrrrrrrrrrrrrrrrrrrrrrrrrrrrrrrrrrrrrrxdde.....",
"....cddKrrrrrrrrrrrrrrrrrrrrrrrrrrrrrrrrrrrrrrrrrrrrrrrxdde.....",
"....cddKrrrrrrrrrrrrrrrrrrrrrrrrrrrrrrrrrrrrrrrrrrrrrrrxdde.....",
"....cddKrrrrrrrrrrrrrrrrrrrrrrrrrrrrrrrrrrrrrrrrrrrrrrrxdde.....",
"....cddKrrrrrrrrrrrrrrrrrrrrrrrrrrrrrrrrrrrrrrrrrrrrrrrxdde.....",
"....cddKrrrrrrrrrrrrrrrrrrrrrrrrrrrrrrrrrrrrrrrrrrrrrrrxdde.....",
"....cddKrrrrrrrrrrrrrrrrrrrrrrrrrrrrrrrrrrrrrrrrrrrrrrrxdde.....",
"....cddKrrrrrrrrrrrrrrrrrrrrrrrrrrrrrrrrrrrrrrrrrrrrrrrxdde.....",
"....cddKrrrrrrrrrrrrrrrrrrrrrrrrrrrrrrrrrrrrrrrrrrrrrrrxdde.....",
"....cddKrrrrrrrrrrrrrrrrrrrrrrrrrrrrrrrrrrrrrrrrrrrrrrrxdde.....",
"....cddKrrrrrrrrrrrrrrrrrrrrrrrrrrrrrrrrrrrrrrrrrrrrrrrxdde.....",
"....cddKrrrrrrrrrrrrrrrrrrrrrrrrrrrrrrrrrrrrrrrrrrrrrrrxdde.....",
"....cddKrrrrrrrrrrrrrrrrrrrrrrrrrrrrrrrrrrrrrrrrrrrrrrrxdde.....",
"....cddKrrrrrrrrrrrrrrrrrrrrrrrrrrrrrrrrrrrrrrrrrrrrrrrxdde.....",
"....cddKrrrrrrrrrrrrrrrrrrrrrrrrrrrrrrrrrrrrrrrrrrrrrrrxdde.....",
"....cddKrrrrrrrrrrrrrrrrrrrrrrrrrrrrrrrrrrrrrrrrrrrrrrrxdde.....",
"....cddKrrrrrrrrrrrrrrrrrrrrrrrrrrrrrrrrrrrrrrrrrrrrrrrxdde.....",
"....cddKrrrrrrrrrrrrrrrrrrrrrrrrrrrrrrrrrrrrrrrrrrrrrrrxdde.....",
"....cddKrrrrrrrrrrrrrrrrrrrrrrrrrrrrrrrrrrrrrrrrrrrrrrrxdde.....",
"....cddKrrrrrrrrrrrrrrrrrrrrrrrrrrrrrrrrrrrrrrrrrrrrrrrxdde.....",
"....cddKrrrrrrrrrrrrrrrrrrrrrrrrrrrrrrrrrrrrrrrrrrrrrrrxdde.....",
"....cddKrrrrrrrrrrrrrrrrrrrrrrrrrrrrrrrrrrrrrrrrrrrrrrrxdde.....",
"....cddKrrrrrrrrrrrrrrrrrrrrrrrrrrrrrrrrrrrrrrrrrrrrrrrxdde.....",
"....cddLrrrrrrrrrrrrrrrrrrrrrrrrrrrrrrrrrrrrrrrrrrrrrrrMdde.....",
"....cdddArrrrrrrrrrrrrrrrrrrrrrrrrrrrrrrrrrrrrrrrrrrrrrHdde.....",
"....cdddErrrrrrrrrrrrrrrrrrrrrrrrrrrrrrrrrrrrrrrrrrrrrwddde.....",
"....cdddkrrrrrrrrrrrrrrrrrrrrrrrrrrrrrrrrrrrrrrrrrrrrrNddde.....",
"....cdddfArrrrrrrrrrrrrrrrrrrrrrrrrrrrrrrrrrrrrrrrrrrruddde.....",
"....cddddjrrrrrrrrrrrrrrrrrrrrrrrrrrrrrrrrrrrrrrrrrrrOdddde.....",
"....cddddLPrrrrrrrrrrrrrrrrrrrrrrrrrrrrrrrrrrrrrrrrrCfdddde.....",
"....cdddddMQrrrrrrrrrrrrrrrrrrrrrrrrrrrrrrrrrrrrrrrARddddde.....",
"....cdddddduwrrrrrrrrrrrrrrrrrrrrrrrrrrrrrrrrrrrrrCxdddddde.....",
"....cdddddddHSrrrrrrrrrrrrrrrrrrrrrrrrrrrrrrrrrrrTUddddddde.....",
"....cdddddddddVDQrrrrrrrrrrrrrrrrrrrrrrrrrrrrrzSWndddddddde.....",
"....cdddddddddddouWXpppppppppppppppppppppppXYutddddddddddde.....",
"....cddddddddddddddddddddddddddddddddddddddddddddddddddddde.....",
"....cddddddddddddddddddddddddddddddddddddddddddddddddddddde.....",
"....Zccccccccccccccccccccccccccccccccccccccccccccccccccccc#.....",
"................................................................",
"................................................................",
"................................................................",
"................................................................"};
